<svg width="15" height="14" viewBox="0 0 24 23" fill="none" xmlns="http://www.w3.org/2000/svg">
<path fill-rule="evenodd" clip-rule="evenodd" d="M10 21.25C10 20.9185 9.8683 20.6005 9.63388 20.3661C9.39946 20.1317 9.08152 20 8.75 20H2.5V2.5H8.75C9.08152 2.5 9.39946 2.3683 9.63388 2.13388C9.8683 1.89946 10 1.58152 10 1.25C10 0.918479 9.8683 0.600537 9.63388 0.366116C9.39946 0.131696 9.08152 0 8.75 0H2.5C1.83696 0 1.20107 0.263392 0.732233 0.732233C0.263392 1.20107 0 1.83696 0 2.5V20C0 20.663 0.263392 21.2989 0.732233 21.7678C1.20107 22.2366 1.83696 22.5 2.5 22.5H8.75C9.08152 22.5 9.39946 22.3683 9.63388 22.1339C9.8683 21.8995 10 21.5815 10 21.25Z" fill="#111111"/>
<path d="M23.3925 12.1247C23.6211 11.8923 23.7495 11.5795 23.75 11.2535V11.246C23.7493 10.9157 23.6176 10.5992 23.3838 10.366L18.3838 5.36599C18.2684 5.2466 18.1305 5.15137 17.978 5.08586C17.8255 5.02035 17.6615 4.98586 17.4955 4.98442C17.3295 4.98298 17.1649 5.01461 17.0113 5.07746C16.8577 5.14031 16.7181 5.23313 16.6008 5.35049C16.4834 5.46786 16.3906 5.60742 16.3277 5.76104C16.2649 5.91466 16.2332 6.07926 16.2347 6.24524C16.2361 6.41121 16.2706 6.57524 16.3361 6.72774C16.4016 6.88025 16.4969 7.01818 16.6162 7.13348L19.4825 9.99974H7.5C7.16848 9.99974 6.85054 10.1314 6.61612 10.3659C6.3817 10.6003 6.25 10.9182 6.25 11.2497C6.25 11.5813 6.3817 11.8992 6.61612 12.1336C6.85054 12.368 7.16848 12.4997 7.5 12.4997H19.4825L16.6162 15.366C16.3886 15.6017 16.2626 15.9175 16.2654 16.2452C16.2683 16.573 16.3997 16.8865 16.6315 17.1183C16.8632 17.35 17.1768 17.4815 17.5045 17.4843C17.8322 17.4872 18.148 17.3612 18.3838 17.1335L23.3838 12.1335L23.3925 12.1247Z" fill="#111111"/>
</svg>
