<svg width="20" height="20" viewBox="0 0 20 20" fill="none" xmlns="http://www.w3.org/2000/svg">
<path d="M16.9167 11.1917C16.7067 11.1262 16.4794 11.1464 16.2842 11.2479C16.0891 11.3494 15.942 11.5239 15.875 11.7333C15.4813 12.9371 14.7138 13.9838 13.6841 14.7212C12.6545 15.4586 11.4164 15.8482 10.15 15.8333C8.58362 15.8511 7.07411 15.247 5.95248 14.1535C4.83084 13.06 4.18863 11.5663 4.16667 10C4.18863 8.43368 4.83084 6.93999 5.95248 5.84647C7.07411 4.75295 8.58362 4.14886 10.15 4.16667C11.5646 4.16325 12.9358 4.65567 14.025 5.55834L12.2167 5.25834C12.1083 5.2405 11.9975 5.24427 11.8905 5.26942C11.7836 5.29457 11.6827 5.34061 11.5937 5.40489C11.5046 5.46917 11.4291 5.55042 11.3716 5.64397C11.314 5.73752 11.2755 5.84153 11.2583 5.95C11.2405 6.05838 11.2443 6.16921 11.2694 6.27613C11.2946 6.38305 11.3406 6.48393 11.4049 6.573C11.4692 6.66206 11.5504 6.73753 11.644 6.79508C11.7375 6.85263 11.8415 6.89112 11.95 6.90834L15.4833 7.49167H15.625C15.7216 7.49156 15.8175 7.47464 15.9083 7.44167C15.9389 7.43008 15.9671 7.41315 15.9917 7.39167C16.0514 7.36945 16.1076 7.33857 16.1583 7.3L16.2333 7.20834C16.2333 7.16667 16.3083 7.13334 16.3417 7.08334C16.375 7.03334 16.3417 7 16.3833 6.96667C16.4064 6.91814 16.4259 6.86801 16.4417 6.81667L17.0667 3.48334C17.0875 3.3739 17.0865 3.26144 17.0638 3.15238C17.0412 3.04332 16.9972 2.93979 16.9345 2.84771C16.8719 2.75562 16.7917 2.67678 16.6985 2.61569C16.6054 2.55461 16.5011 2.51246 16.3917 2.49167C16.2822 2.47088 16.1698 2.47184 16.0607 2.49451C15.9516 2.51718 15.8481 2.56111 15.756 2.62379C15.5701 2.75038 15.442 2.94566 15.4 3.16667L15.175 4.375C13.78 3.16604 11.996 2.50036 10.15 2.5C8.14161 2.48223 6.2082 3.26192 4.774 4.66799C3.33981 6.07406 2.52199 7.99166 2.5 10C2.52199 12.0083 3.33981 13.9259 4.774 15.332C6.2082 16.7381 8.14161 17.5178 10.15 17.5C11.7776 17.525 13.3703 17.0268 14.6934 16.0786C16.0166 15.1305 17.0004 13.7826 17.5 12.2333C17.5316 12.1266 17.5415 12.0147 17.5292 11.9041C17.5168 11.7935 17.4825 11.6865 17.4281 11.5894C17.3737 11.4924 17.3005 11.4071 17.2126 11.3388C17.1248 11.2705 17.0242 11.2205 16.9167 11.1917Z" fill="#545454"/>
</svg>
