<svg width="20" height="20" viewBox="0 0 20 20" fill="none" xmlns="http://www.w3.org/2000/svg">
<g clip-path="url(#clip0_1_2)">
<path fill-rule="evenodd" clip-rule="evenodd" d="M14.9925 5.00833L4.49917 8.8025L7.995 10.8258L11.0775 7.7425C11.2339 7.58624 11.4459 7.4985 11.667 7.49858C11.888 7.49866 12.1 7.58655 12.2563 7.74292C12.4125 7.89928 12.5002 8.11132 12.5002 8.33238C12.5001 8.55344 12.4122 8.76541 12.2558 8.92167L9.1725 12.005L11.1975 15.5L14.9925 5.00833ZM15.2617 3.13833C16.2575 2.7775 17.2225 3.7425 16.8617 4.73833L12.46 16.9092C12.0983 17.9075 10.735 18.0292 10.2025 17.11L7.52167 12.4783L2.89 9.7975C1.97083 9.265 2.09167 7.90167 3.09083 7.54L15.2617 3.13833Z" fill="#545454"/>
</g>
<defs>
<clipPath id="clip0_1_2">
<rect width="20" height="20" fill="white"/>
</clipPath>
</defs>
</svg>
