<svg width="24" height="24" viewBox="0 0 20 20" fill="none" xmlns="http://www.w3.org/2000/svg">
<path d="M14.1922 8.30839C14.2503 8.36643 14.2964 8.43536 14.3279 8.51124C14.3593 8.58711 14.3755 8.66844 14.3755 8.75057C14.3755 8.83271 14.3593 8.91404 14.3279 8.98991C14.2964 9.06579 14.2503 9.13472 14.1922 9.19276L11.6922 11.6928C11.6341 11.7509 11.5652 11.797 11.4893 11.8284C11.4135 11.8599 11.3321 11.8761 11.25 11.8761C11.1679 11.8761 11.0865 11.8599 11.0107 11.8284C10.9348 11.797 10.8659 11.7509 10.8078 11.6928L8.75 9.63417L6.69219 11.6928C6.57491 11.81 6.41585 11.8759 6.25 11.8759C6.08415 11.8759 5.92509 11.81 5.80781 11.6928C5.69054 11.5755 5.62465 11.4164 5.62465 11.2506C5.62465 11.0847 5.69054 10.9257 5.80781 10.8084L8.30781 8.30839C8.36586 8.25028 8.43479 8.20418 8.51066 8.17272C8.58654 8.14127 8.66787 8.12508 8.75 8.12508C8.83213 8.12508 8.91346 8.14127 8.98934 8.17272C9.06521 8.20418 9.13414 8.25028 9.19219 8.30839L11.25 10.367L13.3078 8.30839C13.3659 8.25028 13.4348 8.20418 13.5107 8.17272C13.5865 8.14127 13.6679 8.12508 13.75 8.12508C13.8321 8.12508 13.9135 8.14127 13.9893 8.17272C14.0652 8.20418 14.1341 8.25028 14.1922 8.30839ZM18.125 10.0006C18.1253 11.4033 17.7624 12.7823 17.0717 14.0032C16.381 15.2241 15.3859 16.2454 14.1834 16.9676C12.9808 17.6899 11.6118 18.0885 10.2095 18.1246C8.80719 18.1608 7.41942 17.8333 6.18125 17.174L3.52109 18.0607C3.30085 18.1342 3.0645 18.1448 2.83854 18.0915C2.61257 18.0382 2.40593 17.923 2.24176 17.7588C2.07759 17.5946 1.96239 17.388 1.90906 17.162C1.85573 16.9361 1.86639 16.6997 1.93984 16.4795L2.82656 13.8193C2.24699 12.7297 1.92328 11.5223 1.88 10.2888C1.83672 9.05538 2.075 7.82828 2.57677 6.70068C3.07854 5.57307 3.8306 4.57459 4.77587 3.78104C5.72114 2.98748 6.83478 2.4197 8.03224 2.12079C9.22971 1.82188 10.4795 1.7997 11.6868 2.05594C12.8942 2.31218 14.0272 2.84009 15.0001 3.59961C15.9729 4.35914 16.7599 5.3303 17.3014 6.4394C17.8428 7.54849 18.1245 8.76637 18.125 10.0006ZM16.875 10.0006C16.8747 8.94598 16.6318 7.9056 16.1651 6.9599C15.6983 6.01421 15.0203 5.18857 14.1834 4.54685C13.3466 3.90513 12.3733 3.46454 11.3389 3.25916C10.3045 3.05378 9.23671 3.08912 8.21815 3.36245C7.1996 3.63577 6.25757 4.13976 5.46496 4.83541C4.67235 5.53106 4.0504 6.39973 3.64724 7.37422C3.24407 8.3487 3.07048 9.40287 3.13992 10.4552C3.20935 11.5075 3.51994 12.5297 4.04766 13.4428C4.09195 13.5194 4.11945 13.6046 4.12834 13.6927C4.13723 13.7808 4.1273 13.8697 4.09922 13.9537L3.125 16.8756L6.04687 15.9006C6.13089 15.8726 6.21988 15.8628 6.30797 15.8718C6.39605 15.8809 6.48121 15.9085 6.55781 15.9529C7.60295 16.5574 8.78885 16.876 9.99622 16.8767C11.2036 16.8774 12.3898 16.5601 13.4356 15.9567C14.4814 15.3533 15.3499 14.4852 15.9537 13.4396C16.5574 12.3941 16.8752 11.2079 16.875 10.0006Z" fill="#545454"/>
</svg>
