<svg width="20" height="20" viewBox="0 0 30 30" fill="none" xmlns="http://www.w3.org/2000/svg">
<g clip-path="url(#clip0_132_78)">
<path d="M15 2.5C21.9038 2.5 27.5 8.09625 27.5 15C27.5 21.9037 21.9038 27.5 15 27.5C12.8725 27.5031 10.7796 26.9609 8.92126 25.925L8.54001 25.7025L4.75001 26.8175C4.54376 26.8783 4.32541 26.8854 4.11566 26.8381C3.9059 26.7908 3.71169 26.6908 3.55143 26.5474C3.39118 26.4041 3.27019 26.2222 3.19994 26.019C3.12969 25.8158 3.1125 25.598 3.15001 25.3863L3.18251 25.25L4.29751 21.46C3.11871 19.5116 2.49698 17.2772 2.50001 15C2.50001 8.09625 8.09626 2.5 15 2.5ZM15 5C13.2095 4.99968 11.4518 5.48007 9.91042 6.39102C8.36902 7.30197 7.10045 8.61005 6.23721 10.1787C5.37397 11.7473 4.94772 13.5189 5.00296 15.3085C5.0582 17.0981 5.59291 18.8401 6.55126 20.3525C6.79876 20.7425 6.90501 21.2225 6.82126 21.6987L6.77251 21.9025L6.22126 23.7788L8.09751 23.2275C8.63876 23.0675 9.20126 23.165 9.64751 23.4488C10.9579 24.2785 12.4434 24.792 13.9864 24.9488C15.5295 25.1056 17.0879 24.9012 18.5384 24.352C19.9889 23.8027 21.2918 22.9236 22.344 21.7841C23.3962 20.6446 24.1689 19.276 24.6011 17.7864C25.0333 16.2968 25.113 14.7271 24.8341 13.2014C24.5551 11.6757 23.9251 10.2358 22.9938 8.99547C22.0624 7.75519 20.8554 6.74854 19.468 6.0551C18.0807 5.36166 16.551 5.00044 15 5ZM12.2413 12.2413C12.4565 12.026 12.7429 11.8967 13.0467 11.8776C13.3504 11.8585 13.6508 11.9509 13.8913 12.1375L14.0088 12.2413L16.875 15.1075L19.7413 12.2413C19.9662 12.0171 20.2681 11.8869 20.5855 11.8772C20.9029 11.8675 21.2122 11.979 21.4504 12.1891C21.6886 12.3991 21.8379 12.6919 21.868 13.0081C21.8981 13.3242 21.8068 13.64 21.6125 13.8912L21.5088 14.0087L17.7588 17.7587C17.5435 17.974 17.2571 18.1033 16.9534 18.1224C16.6496 18.1415 16.3493 18.0491 16.1088 17.8625L15.9913 17.7587L13.125 14.8925L10.2588 17.7587C10.0338 17.9829 9.73197 18.1131 9.41453 18.1228C9.09709 18.1325 8.78787 18.021 8.54966 17.8109C8.31146 17.6009 8.16213 17.3081 8.13201 16.9919C8.10189 16.6758 8.19325 16.36 8.38751 16.1088L8.49126 15.9913L12.2413 12.2413Z" fill="#111111"/>
</g>
<defs>
<clipPath id="clip0_132_78">
<rect width="30" height="30" fill="white"/>
</clipPath>
</defs>
</svg>
