<svg width="20" height="20" viewBox="0 0 26 26" fill="none" xmlns="http://www.w3.org/2000/svg">
<path d="M13 0.5C20.0425 0.5 25.5 5.65875 25.5 12.625C25.5 19.5912 20.0425 24.75 13 24.75C11.7777 24.7531 10.5605 24.5917 9.38125 24.27C9.15975 24.2091 8.92405 24.2263 8.71375 24.3188L6.23375 25.4137C6.08391 25.48 5.9201 25.5084 5.75672 25.4964C5.59333 25.4845 5.43538 25.4326 5.29675 25.3453C5.15812 25.2581 5.04305 25.1381 4.96166 24.9959C4.88028 24.8537 4.83506 24.6937 4.83 24.53L4.76125 22.305C4.75675 22.1697 4.72472 22.0368 4.66712 21.9143C4.60952 21.7918 4.52757 21.6823 4.42625 21.5925C1.99375 19.4188 0.5 16.2712 0.5 12.625C0.5 5.65875 5.95875 0.5 13 0.5ZM5.49375 16.1712C5.14125 16.73 5.82875 17.36 6.355 16.96L10.2987 13.9675C10.4289 13.8692 10.5875 13.8161 10.7506 13.8161C10.9137 13.8161 11.0723 13.8692 11.2025 13.9675L14.1238 16.155C14.331 16.3104 14.5681 16.4212 14.8203 16.4805C15.0725 16.5397 15.3342 16.546 15.5889 16.499C15.8437 16.452 16.0859 16.3528 16.3004 16.2075C16.5148 16.0622 16.6969 15.8741 16.835 15.655L20.5062 9.83C20.8587 9.27 20.1712 8.64 19.645 9.03875L15.7013 12.0338C15.5711 12.132 15.4125 12.1852 15.2494 12.1852C15.0863 12.1852 14.9277 12.132 14.7975 12.0338L11.8762 9.84625C11.669 9.69082 11.4319 9.58 11.1797 9.52079C10.9275 9.46159 10.6658 9.45528 10.4111 9.50225C10.1563 9.54923 9.91411 9.64848 9.69964 9.79374C9.48518 9.939 9.30314 10.1271 9.165 10.3462L5.49375 16.1712Z" fill="#111111"/>
</svg>
