<svg width="24" height="24" viewBox="0 0 20 20" fill="none" xmlns="http://www.w3.org/2000/svg">
<path d="M10.0001 1.875C8.5973 1.87469 7.21836 2.23757 5.99745 2.9283C4.77654 3.61904 3.75526 4.6141 3.03301 5.81664C2.31077 7.01918 1.91216 8.38822 1.87599 9.79052C1.83983 11.1928 2.16733 12.5806 2.82663 13.8188L1.93991 16.4789C1.86646 16.6992 1.8558 16.9355 1.90913 17.1615C1.96245 17.3874 2.07765 17.5941 2.24182 17.7582C2.40599 17.9224 2.61264 18.0376 2.8386 18.0909C3.06456 18.1443 3.30091 18.1336 3.52116 18.0602L6.18131 17.1734C7.27098 17.753 8.47836 18.0767 9.7118 18.12C10.9453 18.1633 12.1724 17.925 13.3 17.4232C14.4276 16.9215 15.426 16.1694 16.2196 15.2241C17.0132 14.2789 17.5809 13.1652 17.8798 11.9678C18.1788 10.7703 18.2009 9.52047 17.9447 8.31315C17.6885 7.10584 17.1605 5.97276 16.401 4.99993C15.6415 4.02711 14.6703 3.24009 13.5612 2.69864C12.4521 2.15718 11.2343 1.87551 10.0001 1.875ZM14.1923 9.19219L11.6923 11.6922C11.6342 11.7503 11.5653 11.7964 11.4894 11.8279C11.4135 11.8593 11.3322 11.8755 11.2501 11.8755C11.1679 11.8755 11.0866 11.8593 11.0107 11.8279C10.9349 11.7964 10.8659 11.7503 10.8079 11.6922L8.75006 9.63359L6.69225 11.6922C6.57498 11.8095 6.41592 11.8753 6.25006 11.8753C6.08421 11.8753 5.92515 11.8095 5.80788 11.6922C5.6906 11.5749 5.62472 11.4159 5.62472 11.25C5.62472 11.0841 5.6906 10.9251 5.80788 10.8078L8.30788 8.30781C8.36592 8.2497 8.43485 8.2036 8.51073 8.17215C8.5866 8.1407 8.66793 8.12451 8.75006 8.12451C8.8322 8.12451 8.91353 8.1407 8.9894 8.17215C9.06528 8.2036 9.13421 8.2497 9.19225 8.30781L11.2501 10.3664L13.3079 8.30781C13.3659 8.24974 13.4349 8.20368 13.5108 8.17225C13.5866 8.14083 13.6679 8.12465 13.7501 8.12465C13.8322 8.12465 13.9135 8.14083 13.9894 8.17225C14.0652 8.20368 14.1342 8.24974 14.1923 8.30781C14.2503 8.36588 14.2964 8.43482 14.3278 8.51069C14.3592 8.58656 14.3754 8.66788 14.3754 8.75C14.3754 8.83212 14.3592 8.91344 14.3278 8.98931C14.2964 9.06518 14.2503 9.13412 14.1923 9.19219Z" fill="#252525"/>
</svg>
