<svg width="20" height="20" viewBox="0 0 20 20" fill="none" xmlns="http://www.w3.org/2000/svg">
<path d="M6.24915 9.16667C6.9395 9.16667 7.49915 8.60703 7.49915 7.91667C7.49915 7.22632 6.9395 6.66667 6.24915 6.66667C5.55879 6.66667 4.99915 7.22632 4.99915 7.91667C4.99915 8.60703 5.55879 9.16667 6.24915 9.16667Z" fill="#545454"/>
<path d="M8.74915 11.6667L7.49915 9.99999L4.99915 13.3333H14.9991L11.2491 8.33333L8.74915 11.6667Z" fill="#545454"/>
<path d="M16.6658 3.33333H3.3325C2.41333 3.33333 1.66583 4.08083 1.66583 4.99999V15C1.66583 15.9192 2.41333 16.6667 3.3325 16.6667H16.6658C17.585 16.6667 18.3325 15.9192 18.3325 15V4.99999C18.3325 4.08083 17.585 3.33333 16.6658 3.33333ZM3.3325 15V4.99999H16.6658L16.6675 15H3.3325Z" fill="#545454"/>
</svg>
