<svg width="30" height="30" viewBox="0 0 25 25" fill="none" xmlns="http://www.w3.org/2000/svg">
<path d="M17 11.5H16V9.5C16 7.55 14.45 6 12.5 6C10.55 6 9 7.55 9 9.5V11.5H8V9.5C8 7 10 5 12.5 5C15 5 17 7 17 9.5V11.5Z" fill="#545454"/>
<path d="M16.5 20H8.5C7.65 20 7 19.35 7 18.5V12.5C7 11.65 7.65 11 8.5 11H16.5C17.35 11 18 11.65 18 12.5V18.5C18 19.35 17.35 20 16.5 20ZM8.5 12C8.2 12 8 12.2 8 12.5V18.5C8 18.8 8.2 19 8.5 19H16.5C16.8 19 17 18.8 17 18.5V12.5C17 12.2 16.8 12 16.5 12H8.5Z" fill="#545454"/>
<path d="M12.5 15C13.0523 15 13.5 14.5523 13.5 14C13.5 13.4477 13.0523 13 12.5 13C11.9477 13 11.5 13.4477 11.5 14C11.5 14.5523 11.9477 15 12.5 15Z" fill="#545454"/>
<path d="M12.75 14H12.25L11.75 17H13.25L12.75 14Z" fill="#545454"/>
</svg>
