<svg width="20" height="20" viewBox="0 0 20 20" fill="none" xmlns="http://www.w3.org/2000/svg">
<path d="M16.25 6.40625H13.5938V4.375C13.5937 3.42188 13.2151 2.50779 12.5412 1.83383C11.8672 1.15988 10.9531 0.78125 10 0.78125C9.04688 0.78125 8.13279 1.15988 7.45884 1.83383C6.78488 2.50779 6.40625 3.42188 6.40625 4.375V6.40625H3.75C3.45992 6.40625 3.18172 6.52148 2.9766 6.7266C2.77148 6.93172 2.65625 7.20992 2.65625 7.5V16.25C2.65625 16.5401 2.77148 16.8183 2.9766 17.0234C3.18172 17.2285 3.45992 17.3438 3.75 17.3438H16.25C16.5401 17.3438 16.8183 17.2285 17.0234 17.0234C17.2285 16.8183 17.3438 16.5401 17.3438 16.25V7.5C17.3438 7.20992 17.2285 6.93172 17.0234 6.7266C16.8183 6.52148 16.5401 6.40625 16.25 6.40625ZM7.34375 4.375C7.34375 3.67052 7.6236 2.99489 8.12175 2.49675C8.61989 1.9986 9.29552 1.71875 10 1.71875C10.7045 1.71875 11.3801 1.9986 11.8783 2.49675C12.3764 2.99489 12.6562 3.67052 12.6562 4.375V6.40625H7.34375V4.375ZM16.4062 16.25C16.4062 16.2914 16.3898 16.3312 16.3605 16.3605C16.3312 16.3898 16.2914 16.4062 16.25 16.4062H3.75C3.70856 16.4062 3.66882 16.3898 3.63951 16.3605C3.61021 16.3312 3.59375 16.2914 3.59375 16.25V7.5C3.59375 7.45856 3.61021 7.41882 3.63951 7.38951C3.66882 7.36021 3.70856 7.34375 3.75 7.34375H16.25C16.2914 7.34375 16.3312 7.36021 16.3605 7.38951C16.3898 7.41882 16.4062 7.45856 16.4062 7.5V16.25ZM10.7812 11.875C10.7812 12.0295 10.7354 12.1806 10.6496 12.309C10.5637 12.4375 10.4417 12.5377 10.299 12.5968C10.1562 12.6559 9.99913 12.6714 9.84759 12.6412C9.69604 12.6111 9.55683 12.5367 9.44757 12.4274C9.33831 12.3182 9.26391 12.179 9.23376 12.0274C9.20362 11.8759 9.21909 11.7188 9.27822 11.576C9.33735 11.4333 9.43748 11.3113 9.56596 11.2254C9.69444 11.1396 9.84548 11.0938 10 11.0938C10.2072 11.0938 10.4059 11.1761 10.5524 11.3226C10.6989 11.4691 10.7812 11.6678 10.7812 11.875Z" fill="#6259a5ff"/>
</svg>
