<svg width="20" height="20" viewBox="0 0 25 25" fill="none" xmlns="http://www.w3.org/2000/svg">
<path d="M20.3125 7.8125H17.1875V5.46875C17.1875 4.22555 16.6936 3.03326 15.8146 2.15419C14.9355 1.27511 13.7432 0.78125 12.5 0.78125C11.2568 0.78125 10.0645 1.27511 9.18544 2.15419C8.30636 3.03326 7.8125 4.22555 7.8125 5.46875V7.8125H4.6875C4.2731 7.8125 3.87567 7.97712 3.58265 8.27015C3.28962 8.56317 3.125 8.9606 3.125 9.375V20.3125C3.125 20.7269 3.28962 21.1243 3.58265 21.4174C3.87567 21.7104 4.2731 21.875 4.6875 21.875H20.3125C20.7269 21.875 21.1243 21.7104 21.4174 21.4174C21.7104 21.1243 21.875 20.7269 21.875 20.3125V9.375C21.875 8.9606 21.7104 8.56317 21.4174 8.27015C21.1243 7.97712 20.7269 7.8125 20.3125 7.8125ZM12.5 16.0156C12.2682 16.0156 12.0417 15.9469 11.8489 15.8181C11.6562 15.6894 11.506 15.5063 11.4173 15.2922C11.3286 15.0781 11.3054 14.8425 11.3506 14.6151C11.3959 14.3878 11.5075 14.179 11.6714 14.0151C11.8352 13.8512 12.0441 13.7396 12.2714 13.6944C12.4987 13.6492 12.7343 13.6724 12.9485 13.7611C13.1626 13.8498 13.3456 14 13.4744 14.1927C13.6031 14.3854 13.6719 14.612 13.6719 14.8438C13.6719 15.1546 13.5484 15.4526 13.3286 15.6724C13.1089 15.8922 12.8108 16.0156 12.5 16.0156ZM15.625 7.8125H9.375V5.46875C9.375 4.63995 9.70424 3.84509 10.2903 3.25904C10.8763 2.67299 11.6712 2.34375 12.5 2.34375C13.3288 2.34375 14.1237 2.67299 14.7097 3.25904C15.2958 3.84509 15.625 4.63995 15.625 5.46875V7.8125Z" fill="rgb(140, 133, 196)"/>
</svg>
