<svg width="19" height="22" viewBox="0 0 19 22" fill="none" xmlns="http://www.w3.org/2000/svg">
<path d="M17.3125 7.8125H14.1875V5.46875C14.1875 4.22555 13.6936 3.03326 12.8146 2.15419C11.9355 1.27511 10.7432 0.78125 9.5 0.78125C8.2568 0.78125 7.06451 1.27511 6.18544 2.15419C5.30636 3.03326 4.8125 4.22555 4.8125 5.46875V7.8125H1.6875C1.2731 7.8125 0.875671 7.97712 0.582646 8.27015C0.28962 8.56317 0.125 8.9606 0.125 9.375V20.3125C0.125 20.7269 0.28962 21.1243 0.582646 21.4174C0.875671 21.7104 1.2731 21.875 1.6875 21.875H17.3125C17.7269 21.875 18.1243 21.7104 18.4174 21.4174C18.7104 21.1243 18.875 20.7269 18.875 20.3125V9.375C18.875 8.9606 18.7104 8.56317 18.4174 8.27015C18.1243 7.97712 17.7269 7.8125 17.3125 7.8125ZM9.5 16.0156C9.26823 16.0156 9.04166 15.9469 8.84894 15.8181C8.65623 15.6894 8.50603 15.5063 8.41733 15.2922C8.32863 15.0781 8.30543 14.8425 8.35064 14.6151C8.39586 14.3878 8.50747 14.179 8.67136 14.0151C8.83525 13.8512 9.04406 13.7396 9.27138 13.6944C9.4987 13.6492 9.73432 13.6724 9.94846 13.7611C10.1626 13.8498 10.3456 14 10.4744 14.1927C10.6031 14.3854 10.6719 14.612 10.6719 14.8438C10.6719 15.1546 10.5484 15.4526 10.3286 15.6724C10.1089 15.8922 9.8108 16.0156 9.5 16.0156ZM12.625 7.8125H6.375V5.46875C6.375 4.63995 6.70424 3.84509 7.29029 3.25904C7.87634 2.67299 8.6712 2.34375 9.5 2.34375C10.3288 2.34375 11.1237 2.67299 11.7097 3.25904C12.2958 3.84509 12.625 4.63995 12.625 5.46875V7.8125Z" fill="#252525"/>
</svg>
