<svg width="22" height="22" viewBox="0 0 20 20" fill="none" xmlns="http://www.w3.org/2000/svg">
<path fill-rule="evenodd" clip-rule="evenodd" d="M10.8333 2.49935C10.8333 2.27834 10.7455 2.06637 10.5892 1.91009C10.4329 1.75381 10.2209 1.66602 9.99992 1.66602C9.77891 1.66602 9.56695 1.75381 9.41067 1.91009C9.25439 2.06637 9.16659 2.27834 9.16659 2.49935V3.12435H8.70242C7.80911 3.12429 6.94936 3.46468 6.29819 4.07621C5.64702 4.68775 5.25339 5.52446 5.19742 6.41602L5.01326 9.36102C4.94303 10.4839 4.56601 11.566 3.92326 12.4893C3.79045 12.6802 3.7093 12.9022 3.68771 13.1338C3.66611 13.3653 3.7048 13.5985 3.80002 13.8106C3.89523 14.0228 4.04373 14.2067 4.23106 14.3445C4.4184 14.4822 4.6382 14.5692 4.86909 14.5968L7.70826 14.9368V15.8327C7.70826 16.4405 7.9497 17.0234 8.37947 17.4531C8.80924 17.8829 9.39214 18.1243 9.99992 18.1243C10.6077 18.1243 11.1906 17.8829 11.6204 17.4531C12.0501 17.0234 12.2916 16.4405 12.2916 15.8327V14.9368L15.1308 14.596C15.3615 14.5683 15.5812 14.4813 15.7684 14.3436C15.9556 14.2059 16.104 14.0221 16.1992 13.8101C16.2944 13.598 16.3331 13.365 16.3117 13.1336C16.2902 12.9022 16.2092 12.6802 16.0766 12.4893C15.4338 11.566 15.0568 10.4839 14.9866 9.36102L14.8024 6.41685C14.7467 5.52515 14.3531 4.68823 13.7019 4.07652C13.0507 3.46481 12.1909 3.1243 11.2974 3.12435H10.8333V2.49935ZM8.70242 4.37435C8.12707 4.37428 7.57331 4.59349 7.15391 4.98736C6.7345 5.38122 6.48096 5.92012 6.44492 6.49435L6.26159 9.43935C6.17688 10.7902 5.72319 12.0919 4.94992 13.2027C4.94031 13.2165 4.93444 13.2325 4.93287 13.2493C4.9313 13.266 4.93409 13.2829 4.94097 13.2983C4.94785 13.3136 4.95858 13.3269 4.97212 13.3369C4.98566 13.3469 5.00156 13.3532 5.01826 13.3552L8.13242 13.7293C9.37326 13.8777 10.6266 13.8777 11.8674 13.7293L14.9816 13.3552C14.9983 13.3532 15.0142 13.3469 15.0277 13.3369C15.0413 13.3269 15.052 13.3136 15.0589 13.2983C15.0658 13.2829 15.0685 13.266 15.067 13.2493C15.0654 13.2325 15.0595 13.2165 15.0499 13.2027C14.277 12.0918 13.8236 10.7901 13.7391 9.43935L13.5549 6.49435C13.5189 5.92012 13.2654 5.38122 12.8459 4.98736C12.4265 4.59349 11.8728 4.37428 11.2974 4.37435H8.70242ZM9.99992 16.8743C9.42492 16.8743 8.95826 16.4077 8.95826 15.8327V15.2077H11.0416V15.8327C11.0416 16.4077 10.5749 16.8743 9.99992 16.8743Z" fill="#111111"/>
</svg>
