<svg width="25" height="25" viewBox="0 0 28 30" fill="none" xmlns="http://www.w3.org/2000/svg">
<path d="M12.9999 27.5C14.3749 27.5 15.4999 26.375 15.4999 25H10.4999C10.4999 25.663 10.7633 26.2989 11.2322 26.7678C11.701 27.2366 12.3369 27.5 12.9999 27.5ZM20.4999 20V13.75C20.4999 9.9125 18.4499 6.7 14.8749 5.85V5C14.8749 3.9625 14.0374 3.125 12.9999 3.125C11.9624 3.125 11.1249 3.9625 11.1249 5V5.85C7.53744 6.7 5.49994 9.9 5.49994 13.75V20L3.88744 21.6125C3.09994 22.4 3.64994 23.75 4.76244 23.75H21.2249C22.3374 23.75 22.8999 22.4 22.1124 21.6125L20.4999 20Z" fill="#111111"/>
</svg>
