<svg width="24" height="26" viewBox="0 0 18 20" fill="none" xmlns="http://www.w3.org/2000/svg">
<path d="M8.00004 18.334C8.91671 18.334 9.66671 17.584 9.66671 16.6673H6.33338C6.33338 17.1093 6.50897 17.5333 6.82153 17.8458C7.13409 18.1584 7.55802 18.334 8.00004 18.334ZM13 13.334V9.16732C13 6.60898 11.6334 4.46732 9.25004 3.90065V3.33398C9.25004 2.64232 8.69171 2.08398 8.00004 2.08398C7.30838 2.08398 6.75004 2.64232 6.75004 3.33398V3.90065C4.35838 4.46732 3.00004 6.60065 3.00004 9.16732V13.334L1.92504 14.409C1.40004 14.934 1.76671 15.834 2.50838 15.834H13.4834C14.225 15.834 14.6 14.934 14.075 14.409L13 13.334Z" fill="#111111"/>
</svg>
