<svg width="20" height="20" viewBox="0 0 30 30" fill="none" xmlns="http://www.w3.org/2000/svg">
<path fill-rule="evenodd" clip-rule="evenodd" d="M14.9999 1.875C14.5026 1.875 14.0257 2.07254 13.6741 2.42417C13.3224 2.77581 13.1249 3.25272 13.1249 3.75V3.9375C11.0077 4.3704 9.10489 5.52118 7.7383 7.19525C6.37171 8.86932 5.62517 10.964 5.62491 13.125V20.625L3.36553 23.115C2.27241 24.3206 3.12741 26.25 4.75303 26.25H11.7524C12.0815 26.82 12.5549 27.2934 13.125 27.6225C13.695 27.9516 14.3417 28.1248 14.9999 28.1248C15.6581 28.1248 16.3048 27.9516 16.8748 27.6225C17.4449 27.2934 17.9183 26.82 18.2474 26.25H25.2468C26.8724 26.25 27.7274 24.3188 26.6343 23.115L24.3749 20.625V13.125C24.3746 10.964 23.6281 8.86932 22.2615 7.19525C20.8949 5.52118 18.9921 4.3704 16.8749 3.9375V3.75C16.8749 3.25272 16.6774 2.77581 16.3257 2.42417C15.9741 2.07254 15.4972 1.875 14.9999 1.875ZM8.4374 21.7125L7.70616 22.515L6.86991 23.4375H23.1299L22.2918 22.515L21.5624 21.7106V13.125C21.5624 12.2632 21.3927 11.4098 21.0629 10.6136C20.7331 9.81744 20.2497 9.094 19.6403 8.48461C19.0309 7.87523 18.3075 7.39184 17.5113 7.06204C16.7151 6.73224 15.8617 6.5625 14.9999 6.5625C14.1381 6.5625 13.2847 6.73224 12.4885 7.06204C11.6923 7.39184 10.9689 7.87523 10.3595 8.48461C9.75013 9.094 9.26674 9.81744 8.93695 10.6136C8.60715 11.4098 8.4374 12.2632 8.4374 13.125V21.7125Z" fill="#111111"/>
</svg>
