<svg width="40" height="40" viewBox="0 0 20 20" fill="none" xmlns="http://www.w3.org/2000/svg">
<path fill-rule="evenodd" clip-rule="evenodd" d="M6.6205 15.744C9.75782 15.2857 11.918 15.3251 15.0594 15.7601C15.2869 15.793 15.4948 15.9072 15.6447 16.0815C15.7945 16.2558 15.8763 16.4785 15.8748 16.7084C15.8748 16.9284 15.7992 17.1419 15.6626 17.3088C15.4245 17.5997 15.1806 17.8857 14.9311 18.1668H16.1415C16.2176 18.076 16.2942 17.9834 16.3716 17.8895C16.6435 17.5561 16.7918 17.139 16.7915 16.7088C16.7915 15.7807 16.114 14.9809 15.185 14.8525C11.9693 14.4075 9.72161 14.3649 6.48804 14.8374C5.54937 14.9745 4.87469 15.7866 4.87469 16.7212C4.87469 17.136 5.0099 17.5462 5.26612 17.8785C5.34174 17.9766 5.41645 18.0728 5.4907 18.1672H6.67184C6.43965 17.8893 6.21319 17.6066 5.99258 17.3193C5.86148 17.1474 5.79075 16.937 5.79137 16.7207C5.79137 16.2271 6.14612 15.8132 6.6205 15.744ZM10.8331 11.2917C11.1942 11.2917 11.5518 11.2206 11.8855 11.0824C12.2191 10.9442 12.5223 10.7416 12.7776 10.4863C13.033 10.2309 13.2356 9.92774 13.3738 9.59409C13.512 9.26044 13.5831 8.90284 13.5831 8.5417C13.5831 8.18056 13.512 7.82296 13.3738 7.48931C13.2356 7.15566 13.033 6.8525 12.7776 6.59714C12.5223 6.34178 12.2191 6.13921 11.8855 6.00101C11.5518 5.86281 11.1942 5.79167 10.8331 5.79167C10.1037 5.79167 9.40425 6.08141 8.88852 6.59714C8.37279 7.11287 8.08306 7.81235 8.08306 8.5417C8.08306 9.27105 8.37279 9.97053 8.88852 10.4863C9.40425 11.002 10.1037 11.2917 10.8331 11.2917V11.2917ZM10.8331 12.2084C11.8056 12.2084 12.7382 11.8221 13.4258 11.1344C14.1135 10.4468 14.4998 9.51417 14.4998 8.5417C14.4998 7.56923 14.1135 6.63659 13.4258 5.94895C12.7382 5.26131 11.8056 4.875 10.8331 4.875C9.86061 4.875 8.92797 5.26131 8.24033 5.94895C7.55269 6.63659 7.16638 7.56923 7.16638 8.5417C7.16638 9.51417 7.55269 10.4468 8.24033 11.1344C8.92797 11.8221 9.86061 12.2084 10.8331 12.2084V12.2084Z" fill="#545454"/>
<path fill-rule="evenodd" clip-rule="evenodd" d="M10.8333 19.0828C15.3896 19.0828 19.0833 15.3891 19.0833 10.8328C19.0833 6.27643 15.3896 2.58269 10.8333 2.58269C6.27692 2.58269 2.58318 6.27643 2.58318 10.8328C2.58318 15.3891 6.27692 19.0828 10.8333 19.0828ZM10.8333 19.9995C15.896 19.9995 20 15.8956 20 10.8328C20 5.76997 15.896 1.66602 10.8333 1.66602C5.77046 1.66602 1.6665 5.76997 1.6665 10.8328C1.6665 15.8956 5.77046 19.9995 10.8333 19.9995Z" fill="#545454"/>
</svg>
