<svg width="30" height="30" viewBox="0 0 30 30" fill="none" xmlns="http://www.w3.org/2000/svg">
<path d="M15 2.5C22.0425 2.5 27.5 7.65875 27.5 14.625C27.5 21.5912 22.0425 26.75 15 26.75C13.7777 26.7531 12.5605 26.5917 11.3812 26.27C11.1598 26.2091 10.924 26.2263 10.7138 26.3188L8.23375 27.4137C8.08391 27.48 7.9201 27.5084 7.75672 27.4964C7.59333 27.4845 7.43538 27.4326 7.29675 27.3453C7.15812 27.2581 7.04305 27.1381 6.96166 26.9959C6.88028 26.8537 6.83506 26.6937 6.83 26.53L6.76125 24.305C6.75675 24.1697 6.72472 24.0368 6.66712 23.9143C6.60952 23.7918 6.52757 23.6823 6.42625 23.5925C3.99375 21.4188 2.5 18.2712 2.5 14.625C2.5 7.65875 7.95875 2.5 15 2.5ZM7.49375 18.1712C7.14125 18.73 7.82875 19.36 8.355 18.96L12.2987 15.9675C12.4289 15.8692 12.5875 15.8161 12.7506 15.8161C12.9137 15.8161 13.0723 15.8692 13.2025 15.9675L16.1238 18.155C16.331 18.3104 16.5681 18.4212 16.8203 18.4805C17.0725 18.5397 17.3342 18.546 17.5889 18.499C17.8437 18.452 18.0859 18.3528 18.3004 18.2075C18.5148 18.0622 18.6969 17.8741 18.835 17.655L22.5062 11.83C22.8587 11.27 22.1712 10.64 21.645 11.0388L17.7013 14.0338C17.5711 14.132 17.4125 14.1852 17.2494 14.1852C17.0863 14.1852 16.9277 14.132 16.7975 14.0338L13.8762 11.8463C13.669 11.6908 13.4319 11.58 13.1797 11.5208C12.9275 11.4616 12.6658 11.4553 12.4111 11.5023C12.1563 11.5492 11.9141 11.6485 11.6996 11.7937C11.4852 11.939 11.3031 12.1271 11.165 12.3462L7.49375 18.1712Z" fill="#111111"/>
</svg>
